/* XPM */
static char * app_icon_xpm[] = {
"48 48 3 1",
" 	c None",
".	c #000000",
"+	c #FFA012",
"                                                ",
"                                                ",
"                                                ",
"                                                ",
"                                                ",
"                                                ",
"                                                ",
"                                                ",
"                                                ",
"                                                ",
"                                                ",
"   .....   +++++                        +++++   ",
"   .....    ++++                        ++++    ",
"   .....    +++++                      +++++    ",
"   .....     ++++                      ++++     ",
"   .....     +++++                    +++++     ",
"   .....      ++++                    ++++      ",
"   .....      +++++                  +++++      ",
"   .....       +++++                +++++       ",
"   .....       +++++                +++++       ",
"   .....        +++++              +++++        ",
"   .....         ++++              ++++         ",
"   .....         +++++            +++++         ",
"   .....          ++++            ++++          ",
"   .....          +++++          +++++          ",
"   .....           +++++         ++++           ",
"   .....           +++++        +++++           ",
"   .....            +++++      +++++            ",
"   .....            +++++      +++++            ",
"   .....             +++++    +++++             ",
"   .....              ++++    ++++              ",
"   .....              +++++  +++++              ",
"   .....               ++++  ++++               ",
"   .....               ++++++++++               ",
"   .....                ++++++++                ",
"   .....                ++++++++                ",
"   .....                 ++++++                 ",
"                                                ",
"                                                ",
"                                                ",
"                                                ",
"                                                ",
"                                                ",
"                                                ",
"                                                ",
"                                                ",
"                                                ",
"                                                "};
